<svg xmlns="http://www.w3.org/2000/svg" width="36" height="36" viewBox="0 0 36 36"><defs><style>.a{fill:#fff;stroke:#477de9;stroke-width:2px;}.b{fill:#477de9;}.c{stroke:none;}.d{fill:none;}</style></defs><g transform="translate(-658 -1699)"><g class="a" transform="translate(658 1699)"><circle class="c" cx="18" cy="18" r="18"/><circle class="d" cx="18" cy="18" r="17"/></g><path class="b" d="M.63-6.3a6.581,6.581,0,0,1,.837-3.321,5.977,5.977,0,0,1,2.286-2.286A6.486,6.486,0,0,1,7-12.726a6.391,6.391,0,0,1,3.69,1.08,5.647,5.647,0,0,1,2.214,2.988h-2.9a3,3,0,0,0-1.215-1.35,3.566,3.566,0,0,0-1.809-.45,3.722,3.722,0,0,0-1.953.513A3.5,3.5,0,0,0,3.7-8.5a4.777,4.777,0,0,0-.477,2.2A4.791,4.791,0,0,0,3.7-4.113,3.489,3.489,0,0,0,5.031-2.655a3.722,3.722,0,0,0,1.953.513A3.51,3.51,0,0,0,8.793-2.6,3.058,3.058,0,0,0,10.008-3.96h2.9a5.616,5.616,0,0,1-2.2,3A6.418,6.418,0,0,1,7,.108,6.486,6.486,0,0,1,3.753-.711,6,6,0,0,1,1.467-2.988,6.532,6.532,0,0,1,.63-6.3Zm13.338,0A6.581,6.581,0,0,1,14.8-9.621a5.977,5.977,0,0,1,2.286-2.286,6.486,6.486,0,0,1,3.249-.819,6.391,6.391,0,0,1,3.69,1.08,5.647,5.647,0,0,1,2.214,2.988h-2.9a3,3,0,0,0-1.215-1.35,3.566,3.566,0,0,0-1.809-.45,3.722,3.722,0,0,0-1.953.513A3.5,3.5,0,0,0,17.037-8.5a4.777,4.777,0,0,0-.477,2.2,4.791,4.791,0,0,0,.477,2.187,3.489,3.489,0,0,0,1.332,1.458,3.722,3.722,0,0,0,1.953.513A3.51,3.51,0,0,0,22.131-2.6,3.058,3.058,0,0,0,23.346-3.96h2.9a5.616,5.616,0,0,1-2.2,3A6.418,6.418,0,0,1,20.34.108a6.486,6.486,0,0,1-3.249-.819A6,6,0,0,1,14.8-2.988,6.532,6.532,0,0,1,13.968-6.3Z" transform="translate(662.563 1723.309)"/></g></svg>