<svg xmlns="http://www.w3.org/2000/svg" width="37.5" height="30" viewBox="0 0 37.5 30"><defs><style>.a{fill:#ffc904;}</style></defs><path class="a" d="M36.563,26.25H31.875V6.647a2.859,2.859,0,0,0-2.813-2.9H22.5V7.5h5.625V30h8.438a.937.937,0,0,0,.938-.938V27.188A.937.937,0,0,0,36.563,26.25ZM18.3.059,7.045,2.974a1.931,1.931,0,0,0-1.42,1.885V26.25H.938A.937.937,0,0,0,0,27.188v1.875A.937.937,0,0,0,.938,30H20.625V1.944A1.891,1.891,0,0,0,18.3.059ZM15.469,16.875c-.776,0-1.406-.84-1.406-1.875s.63-1.875,1.406-1.875,1.406.84,1.406,1.875S16.245,16.875,15.469,16.875Z" transform="translate(0 0)"/></svg>