<svg xmlns="http://www.w3.org/2000/svg" width="21" height="28" viewBox="0 0 21 28"><defs><style>.a{fill:#ffde00;}</style></defs><path class="a" d="M15.75,14H5.25v3.5h10.5Zm4.867-8.258L15.263.383A1.311,1.311,0,0,0,14.333,0H14V7h7V6.666A1.308,1.308,0,0,0,20.617,5.742Zm-8.367,1.7V0H1.312A1.309,1.309,0,0,0,0,1.312V26.687A1.309,1.309,0,0,0,1.312,28H19.687A1.309,1.309,0,0,0,21,26.687V8.75H13.562A1.316,1.316,0,0,1,12.25,7.437ZM3.5,3.937A.437.437,0,0,1,3.937,3.5H8.312a.437.437,0,0,1,.437.437v.875a.437.437,0,0,1-.437.437H3.937A.437.437,0,0,1,3.5,4.812Zm0,3.5A.437.437,0,0,1,3.937,7H8.312a.437.437,0,0,1,.437.437v.875a.437.437,0,0,1-.437.437H3.937A.437.437,0,0,1,3.5,8.312Zm14,16.625a.437.437,0,0,1-.437.437H12.687a.437.437,0,0,1-.437-.437v-.875a.437.437,0,0,1,.437-.437h4.375a.437.437,0,0,1,.437.437Zm0-10.937v5.25a.875.875,0,0,1-.875.875H4.375a.875.875,0,0,1-.875-.875v-5.25a.875.875,0,0,1,.875-.875h12.25A.875.875,0,0,1,17.5,13.125Z"/></svg>