<svg xmlns="http://www.w3.org/2000/svg" width="23.25" height="31" viewBox="0 0 23.25 31"><defs><style>.a{fill:#ffc904;}</style></defs><path class="a" d="M7.266,4.359a4.359,4.359,0,1,1,4.359,4.359A4.359,4.359,0,0,1,7.266,4.359Zm15.417.083a1.937,1.937,0,0,0-2.74,0L14.7,9.688H8.552L3.307,4.443a1.937,1.937,0,1,0-2.74,2.74L6.3,12.912V29.063A1.938,1.938,0,0,0,8.234,31H9.2a1.938,1.938,0,0,0,1.938-1.937V22.281h.969v6.781A1.938,1.938,0,0,0,14.047,31h.969a1.938,1.938,0,0,0,1.937-1.937V12.912l5.729-5.729a1.937,1.937,0,0,0,0-2.74Z" transform="translate(0)"/></svg>