<svg xmlns="http://www.w3.org/2000/svg" width="11.602" height="19.797" viewBox="0 0 11.602 19.797"><defs><style>.a{fill:#fff;}</style></defs><path class="a" d="M60.444,0a5.808,5.808,0,0,0-5.8,5.8A5.748,5.748,0,0,0,55.2,8.294c.007.017.015.033.024.05l4.383,8.487a.937.937,0,0,0,1.666,0l4.382-8.484c.008-.015.015-.029.021-.044a5.747,5.747,0,0,0,.565-2.5A5.808,5.808,0,0,0,60.444,0Zm0,8.838A3.036,3.036,0,1,1,63.481,5.8,3.04,3.04,0,0,1,60.444,8.838Z" transform="translate(-54.643 0)"/><path class="a" d="M99.74,249.018H95.27a.562.562,0,1,0,0,1.125H99.74a.562.562,0,1,0,0-1.125Z" transform="translate(-91.704 -230.346)"/></svg>